
	<svg xmlns="http://www.w3.org/2000/svg" xmlns:xlink="http://www.w3.org/1999/xlink" version="1.1" width="255" height="255" viewBox="0 0 100 100">


		<defs>
			<g id="background">
<path fill="url(#background-gradient)" stroke="none" d=" M 0 100 L 100 100 100 0 0 0 0 100 Z"/>
</g><mask id="mask">
<path fill="#FFFFFF" stroke="none" d=" M 0 100 L 100 100 100 0 0 0 0 100 Z"/>
</mask><g id="middle-1">
<path fill="#000000" fill-opacity="0.1" stroke="none" d=" M 77.1 14.9 Q 64.1 11.1 50 11.1 21.8 11.1 0 25.2 L 0 100 100 100 100 25.2 Q 89.7 18.5 77.1 14.9 Z"/>
</g>
			
	<linearGradient id="background-gradient" x1="0" y1="0" y2="1" x2="0" >
		<stop stop-color="#292929" offset="0%"/>
		<stop stop-color="#000000" offset="100%"/>
	</linearGradient>

			
			
	<filter id="drop-shadow">
		<feGaussianBlur in="SourceAlpha" stdDeviation="0" />
		<feComponentTransfer>
			<feFuncA type="linear" slope="0.9"/>
		</feComponentTransfer>
		<feOffset dx="-0.9999999999999999" dy="1" result="offsetblur" />
		<feFlood flood-color="#ff2828" />
		<feComposite in2="offsetblur" operator="in" />
		<feMerge>
			<feMergeNode />
			<feMergeNode in="SourceGraphic" />
		</feMerge>
	</filter>

			<g transform="scale(3.4482758620689653) translate(-0.5 -0.5)" id="picture"><path d="M3 29.5c-.3 0-.5-.2-.5-.5V1c0-.3.2-.5.5-.5s.5.2.5.5v28c0 .3-.2.5-.5.5zm8 0c-.3 0-.5-.2-.5-.5V1c0-.3.2-.5.5-.5s.5.2.5.5v28c0 .3-.2.5-.5.5zm8 0c-.3 0-.5-.2-.5-.5V1c0-.3.2-.5.5-.5s.5.2.5.5v28c0 .3-.2.5-.5.5zm8 0c-.3 0-.5-.2-.5-.5V1c0-.3.2-.5.5-.5s.5.2.5.5v28c0 .3-.2.5-.5.5z M29 27.5H1c-.3 0-.5-.2-.5-.5s.2-.5.5-.5h28c.3 0 .5.2.5.5s-.2.5-.5.5zm0-8H1c-.3 0-.5-.2-.5-.5s.2-.5.5-.5h28c.3 0 .5.2.5.5s-.2.5-.5.5zm0-8H1c-.3 0-.5-.2-.5-.5s.2-.5.5-.5h28c.3 0 .5.2.5.5s-.2.5-.5.5zm0-8H1C.7 3.5.5 3.3.5 3s.2-.5.5-.5h28c.3 0 .5.2.5.5s-.2.5-.5.5z"/></g>
			
	<linearGradient id="picture-gradient" x1="0" y1="0" y2="1" x2="0" >
		<stop stop-color="#ffffff" offset="0%"/>
		<stop stop-color="#e5eff9" offset="100%"/>
	</linearGradient>

		</defs>

		

			<use xlink:href="#background" fill="url(#background-gradient)" />

		<use xlink:href="#middle-1" />

			<g mask="url(#mask)">
				<g transform="
				        translate(
                                50 50
)
                            translate(0 0)  scale(0.6500000000000001)  
                            translate(
                                -50 -50
)">
					<g filter="url(#drop-shadow)">
						<use xlink:href="#picture" fill="url(#picture-gradient)"  />
					</g>
				</g>
			</g>

		



	</svg>
